<?xml version="1.0" encoding="UTF-8"?>
<svg width="284px" height="109px" viewBox="0 0 284 109" version="1.1" xmlns="http://www.w3.org/2000/svg" xmlns:xlink="http://www.w3.org/1999/xlink">
    <!-- Generator: Sketch 61.2 (89653) - https://sketch.com -->
    <title>Group</title>
    <desc>Created with Sketch.</desc>
    <g id="Page-1" stroke="none" stroke-width="1" fill="none" fill-rule="evenodd">
        <g id="Group" transform="translate(-0.000000, 0.000000)">
            <path d="M7.291,77.623 L11.712,77.623 L11.712,79.918 L11.794,79.918 C12.988,78.179 14.771,77.18 16.995,77.18 C19.12,77.18 21.017,77.944 21.937,79.997 C22.942,78.51 24.725,77.18 27.099,77.18 C30.707,77.18 33.317,78.838 33.317,83.242 L33.317,94.643 L28.629,94.643 L28.629,84.996 C28.629,82.706 28.447,80.846 25.77,80.846 C23.128,80.846 22.65,83.028 22.65,85.17 L22.65,94.643 L17.947,94.643 L17.947,85.102 C17.947,83.127 18.104,80.846 15.138,80.846 C14.218,80.846 11.976,81.444 11.976,84.771 L11.976,94.643 L7.291,94.643 L7.291,77.623" id="Fill-2" fill="#1A1919"></path>
            <path d="M42.829,91.595 C46.024,91.595 46.993,88.856 46.993,86.144 C46.993,83.415 46.024,80.681 42.829,80.681 C39.674,80.681 38.711,83.415 38.711,86.144 C38.711,88.856 39.674,91.595 42.829,91.595 Z M42.829,77.18 C48.202,77.18 51.671,80.709 51.671,86.144 C51.671,91.538 48.202,95.121 42.829,95.121 C37.495,95.121 34.037,91.538 34.037,86.144 C34.037,80.709 37.495,77.18 42.829,77.18 L42.829,77.18 Z" id="Fill-3" fill="#1A1919"></path>
            <path d="M52.241,77.623 L56.701,77.623 L56.701,79.997 L56.798,79.997 C57.978,78.085 59.978,77.18 61.992,77.18 C66.969,77.18 68.206,79.964 68.206,84.178 L68.206,94.643 L63.535,94.643 L63.535,85.031 C63.535,82.225 62.712,80.846 60.559,80.846 C58.003,80.846 56.922,82.268 56.922,85.715 L56.922,94.643 L52.241,94.643 L52.241,77.623" id="Fill-4" fill="#1A1919"></path>
            <path d="M76.05,77.623 L79.466,77.623 L79.466,80.738 L76.05,80.738 L76.05,89.181 C76.05,90.756 76.435,91.16 78.015,91.16 C78.503,91.16 78.97,91.123 79.466,91.013 L79.466,94.686 C78.678,94.811 77.647,94.846 76.737,94.846 C73.886,94.846 71.372,94.179 71.372,90.793 L71.372,80.738 L68.528,80.738 L68.528,77.623 L71.372,77.623 L71.372,72.535 L76.05,72.535 L76.05,77.623" id="Fill-5" fill="#1A1919"></path>
            <path d="M92.239,86.297 C91.477,87.006 89.833,87.031 88.375,87.302 C86.927,87.605 85.615,88.097 85.615,89.801 C85.615,91.538 86.945,91.98 88.482,91.98 C92.111,91.98 92.239,89.081 92.239,88.051 L92.239,86.297 Z M81.454,82.856 C81.719,78.46 85.633,77.18 89.455,77.18 C92.857,77.18 96.96,77.912 96.96,81.997 L96.96,90.864 C96.96,92.411 97.099,93.958 97.541,94.643 L92.778,94.643 C92.639,94.123 92.5,93.559 92.461,93.003 C90.978,94.554 88.806,95.121 86.717,95.121 C83.494,95.121 80.942,93.491 80.942,90.004 C80.942,86.144 83.847,85.227 86.717,84.824 C89.58,84.418 92.239,84.497 92.239,82.592 C92.239,80.582 90.87,80.282 89.241,80.282 C87.448,80.282 86.318,81.017 86.136,82.856 L81.454,82.856 L81.454,82.856 Z" id="Fill-6" fill="#1A1919"></path>
            <path d="M99.252,94.644 L103.937,94.644 L103.937,77.623 L99.252,77.623 L99.252,94.644 Z M99.252,74.988 L103.937,74.988 L103.937,71.137 L99.252,71.137 L99.252,74.988 Z" id="Fill-7" fill="#1A1919"></path>
            <path d="M106.579,77.623 L111.022,77.623 L111.022,80.795 L111.064,80.795 C111.944,78.638 114.248,77.18 116.508,77.18 C116.847,77.18 117.229,77.219 117.56,77.323 L117.56,81.669 C117.093,81.584 116.415,81.519 115.866,81.519 C112.433,81.519 111.217,83.976 111.217,86.97 L111.217,94.643 L106.579,94.643 L106.579,77.623" id="Fill-8" fill="#1A1919"></path>
            <path d="M36.817,27.335 L30.297,27.335 L30.297,33.584 L36.817,27.335 Z M56.798,27.335 L50.248,27.335 L50.248,33.584 L56.798,27.335 Z M70.235,54.53 L77.269,54.53 L77.269,47.506 L70.235,47.506 L70.235,54.53 Z M51.286,54.53 L57.788,54.53 L57.788,48.37 L51.286,54.53 Z M30.953,54.53 L37.517,54.53 L37.517,48.37 L30.953,54.53 Z M9.583,55.643 L17.719,47.136 L17.719,27.243 L9.583,27.243 L23.762,12.179 L30.026,18.575 L30.026,25.313 L43.193,12.261 L49.742,18.575 L49.742,25.313 L62.705,12.179 L69.551,18.575 L69.551,33.584 L76.435,33.584 L76.435,25.313 L91.434,40.8 L62.705,69.861 L57.258,63.34 L57.258,56.612 L43.193,69.861 L37.167,63.34 L37.167,56.612 L23.762,69.861 L9.583,55.643 L9.583,55.643 Z" id="Fill-9" fill="#FFFFFE"></path>
            <line x1="149.66" y1="0" x2="149.66" y2="108.693" id="Stroke-10" stroke="#FFFFFE" stroke-width="0.457"></line>
            <path d="M172.76,47.385 C172.418,46.063 171.566,45.1 169.894,45.1 C167.434,45.1 166.406,47.272 166.406,49.464 C166.406,51.678 167.434,53.842 169.894,53.842 C171.697,53.842 172.674,52.512 172.828,50.844 L174.796,50.844 C174.621,53.592 172.682,55.507 169.894,55.507 C166.457,55.507 164.4,52.762 164.4,49.464 C164.4,46.184 166.457,43.457 169.894,43.457 C172.479,43.471 174.528,44.911 174.771,47.385 L172.76,47.385" id="Fill-12" fill="#FFFFFE"></path>
            <polyline id="Fill-13" fill="#FFFFFE" points="175.957 43.734 177.973 43.734 177.973 53.486 183.826 53.486 183.826 55.218 175.957 55.218 175.957 43.734"></polyline>
            <path d="M185.944,49.464 C185.944,51.678 186.975,53.842 189.438,53.842 C191.887,53.842 192.922,51.678 192.922,49.464 C192.922,47.272 191.887,45.1 189.438,45.1 C186.975,45.1 185.944,47.272 185.944,49.464 Z M194.944,49.464 C194.944,52.762 192.875,55.507 189.438,55.507 C185.981,55.507 183.922,52.762 183.922,49.464 C183.922,46.184 185.981,43.457 189.438,43.457 C192.875,43.457 194.944,46.184 194.944,49.464 L194.944,49.464 Z" id="Fill-14" fill="#FFFFFE"></path>
            <path d="M197.442,51.386 C197.442,53.165 198.736,53.842 200.337,53.842 C202.112,53.842 202.776,52.986 202.776,52.121 C202.776,51.226 202.283,50.873 201.82,50.701 C201.028,50.388 199.977,50.191 198.404,49.749 C196.43,49.222 195.856,48.031 195.856,46.833 C195.856,44.537 197.973,43.457 200.059,43.457 C202.447,43.457 204.465,44.715 204.465,47.136 L202.447,47.136 C202.356,45.645 201.357,45.1 199.977,45.1 C199.05,45.1 197.863,45.436 197.863,46.601 C197.863,47.4 198.419,47.849 199.238,48.081 C199.417,48.134 201.952,48.79 202.54,48.961 C204.063,49.414 204.776,50.701 204.776,51.896 C204.776,54.47 202.501,55.507 200.223,55.507 C197.584,55.507 195.479,54.238 195.432,51.386 L197.442,51.386" id="Fill-15" fill="#FFFFFE"></path>
            <polyline id="Fill-16" fill="#FFFFFE" points="205.877 43.734 214.149 43.734 214.149 45.478 207.885 45.478 207.885 48.477 213.69 48.477 213.69 50.123 207.885 50.123 207.885 53.486 214.274 53.486 214.274 55.218 205.877 55.218 205.877 43.734"></polyline>
            <path d="M172.76,66.72 C172.418,65.411 171.566,64.441 169.894,64.441 C167.434,64.441 166.406,66.627 166.406,68.802 C166.406,71.03 167.434,73.205 169.894,73.205 C171.697,73.205 172.674,71.854 172.828,70.189 L174.796,70.189 C174.621,72.945 172.682,74.849 169.894,74.849 C166.457,74.849 164.4,72.103 164.4,68.802 C164.4,65.54 166.457,62.812 169.894,62.812 C172.479,62.819 174.528,64.26 174.771,66.72 L172.76,66.72" id="Fill-17" fill="#FFFFFE"></path>
            <path d="M177.366,68.802 C177.366,71.03 178.393,73.205 180.857,73.205 C183.32,73.205 184.344,71.03 184.344,68.802 C184.344,66.627 183.32,64.441 180.857,64.441 C178.393,64.441 177.366,66.627 177.366,68.802 Z M186.372,68.802 C186.372,72.103 184.29,74.849 180.857,74.849 C177.416,74.849 175.346,72.103 175.346,68.802 C175.346,65.54 177.416,62.812 180.857,62.812 C184.29,62.812 186.372,65.54 186.372,68.802 L186.372,68.802 Z" id="Fill-18" fill="#FFFFFE"></path>
            <polyline id="Fill-19" fill="#FFFFFE" points="187.459 63.08 189.567 63.08 194.828 71.54 194.864 71.54 194.864 63.08 196.772 63.08 196.772 74.563 194.651 74.563 189.416 66.117 189.373 66.117 189.373 74.563 187.459 74.563 187.459 63.08"></polyline>
            <polyline id="Fill-20" fill="#FFFFFE" points="197.396 63.08 206.697 63.08 206.697 64.819 203.039 64.819 203.039 74.563 201.051 74.563 201.051 64.819 197.396 64.819 197.396 63.08"></polyline>
            <path d="M209.389,68.306 L212.691,68.306 C213.96,68.306 214.655,67.679 214.655,66.467 C214.655,65.001 213.695,64.723 212.662,64.723 L209.389,64.723 L209.389,68.306 Z M207.379,63.08 L212.859,63.08 C215.389,63.08 216.666,64.246 216.666,66.182 C216.666,68.399 215.141,68.952 214.758,69.07 L214.758,69.112 C215.461,69.205 216.459,69.729 216.459,71.54 C216.459,72.871 216.666,74.089 217.101,74.563 L214.941,74.563 C214.637,74.057 214.637,73.44 214.637,72.871 C214.637,70.763 214.195,69.836 212.352,69.836 L209.389,69.836 L209.389,74.563 L207.379,74.563 L207.379,63.08 L207.379,63.08 Z" id="Fill-21" fill="#FFFFFE"></path>
            <path d="M219.446,68.802 C219.446,71.03 220.485,73.205 222.938,73.205 C225.411,73.205 226.431,71.03 226.431,68.802 C226.431,66.627 225.411,64.441 222.938,64.441 C220.485,64.441 219.446,66.627 219.446,68.802 Z M228.449,68.802 C228.449,72.103 226.381,74.849 222.938,74.849 C219.496,74.849 217.444,72.103 217.444,68.802 C217.444,65.54 219.496,62.812 222.938,62.812 C226.381,62.812 228.449,65.54 228.449,68.802 L228.449,68.802 Z" id="Fill-22" fill="#FFFFFE"></path>
            <polyline id="Fill-23" fill="#FFFFFE" points="229.622 63.08 231.633 63.08 231.633 72.827 237.473 72.827 237.473 74.563 229.622 74.563 229.622 63.08"></polyline>
            <path d="M166.32,90.086 C166.32,91.855 167.622,92.546 169.24,92.546 C170.998,92.546 171.676,91.665 171.676,90.821 C171.676,89.926 171.188,89.57 170.717,89.395 C169.911,89.081 168.881,88.873 167.287,88.447 C165.322,87.908 164.756,86.71 164.756,85.53 C164.756,83.212 166.873,82.146 168.949,82.146 C171.345,82.146 173.348,83.415 173.348,85.819 L171.345,85.819 C171.252,84.332 170.25,83.797 168.881,83.797 C167.926,83.797 166.767,84.119 166.767,85.285 C166.767,86.09 167.298,86.55 168.132,86.76 C168.297,86.817 170.842,87.47 171.444,87.648 C172.945,88.101 173.68,89.395 173.68,90.568 C173.68,93.153 171.405,94.197 169.11,94.197 C166.496,94.197 164.367,92.928 164.32,90.086 L166.32,90.086" id="Fill-24" fill="#FFFFFE"></path>
            <polyline id="Fill-25" fill="#FFFFFE" points="177.773 89.406 173.451 82.418 175.77 82.418 178.832 87.57 181.819 82.418 184.069 82.418 179.787 89.406 179.787 93.908 177.773 93.908 177.773 89.406"></polyline>
            <path d="M185.862,90.086 C185.862,91.855 187.164,92.546 188.775,92.546 C190.536,92.546 191.199,91.665 191.199,90.821 C191.199,89.926 190.729,89.57 190.266,89.395 C189.445,89.081 188.401,88.873 186.828,88.447 C184.861,87.908 184.29,86.71 184.29,85.53 C184.29,83.212 186.411,82.146 188.489,82.146 C190.882,82.146 192.879,83.415 192.879,85.819 L190.882,85.819 C190.772,84.332 189.787,83.797 188.401,83.797 C187.467,83.797 186.293,84.119 186.293,85.285 C186.293,86.09 186.839,86.55 187.666,86.76 C187.838,86.817 190.379,87.47 190.983,87.648 C192.494,88.101 193.213,89.395 193.213,90.568 C193.213,93.153 190.936,94.197 188.633,94.197 C186.029,94.197 183.895,92.928 183.834,90.086 L185.862,90.086" id="Fill-26" fill="#FFFFFE"></path>
            <polyline id="Fill-27" fill="#FFFFFE" points="193.213 82.418 202.508 82.418 202.508 84.154 198.865 84.154 198.865 93.908 196.854 93.908 196.854 84.154 193.213 84.154 193.213 82.418"></polyline>
            <polyline id="Fill-28" fill="#FFFFFE" points="203.193 82.418 211.453 82.418 211.453 84.154 205.203 84.154 205.203 87.173 210.986 87.173 210.986 88.81 205.203 88.81 205.203 92.172 211.571 92.172 211.571 93.908 203.193 93.908 203.193 82.418"></polyline>
            <polyline id="Fill-29" fill="#FFFFFE" points="212.63 82.418 215.479 82.418 218.637 91.413 218.666 91.413 221.75 82.418 224.556 82.418 224.556 93.908 222.637 93.908 222.637 85.038 222.598 85.038 219.414 93.908 217.764 93.908 214.576 85.038 214.548 85.038 214.548 93.908 212.63 93.908 212.63 82.418"></polyline>
            <path d="M227.636,90.086 C227.636,91.855 228.951,92.546 230.541,92.546 C232.32,92.546 232.985,91.665 232.985,90.821 C232.985,89.926 232.502,89.57 232.031,89.395 C231.234,89.081 230.186,88.873 228.606,88.447 C226.645,87.908 226.068,86.71 226.068,85.53 C226.068,83.212 228.182,82.146 230.253,82.146 C232.66,82.146 234.674,83.415 234.674,85.819 L232.66,85.819 C232.567,84.332 231.565,83.797 230.186,83.797 C229.254,83.797 228.068,84.119 228.068,85.285 C228.068,86.09 228.62,86.55 229.437,86.76 C229.622,86.817 232.168,87.47 232.767,87.648 C234.268,88.101 234.99,89.395 234.99,90.568 C234.99,93.153 232.701,94.197 230.435,94.197 C227.8,94.197 225.682,92.928 225.636,90.086 L227.636,90.086" id="Fill-30" fill="#FFFFFE"></path>
        </g>
    </g>
</svg>
