<?xml version="1.0" encoding="UTF-8"?>
<svg id="Layer_1" xmlns="http://www.w3.org/2000/svg" version="1.1" xmlns:xlink="http://www.w3.org/1999/xlink" viewBox="0 0 250.4 89.8">
  <!-- Generator: Adobe Illustrator 29.8.1, SVG Export Plug-In . SVG Version: 2.1.1 Build 2)  -->
  <defs>
    <style>
      .st0 {
        fill: #fff;
      }

      .st1 {
        fill: none;
      }

      .st2 {
        clip-path: url(#clippath);
      }
    </style>
    <clipPath id="clippath">
      <rect class="st1" x=".7" y="1.4" width="248" height="87"/>
    </clipPath>
  </defs>
  <g class="st2">
    <g>
      <path class="st0" d="M6.66,8.57c0,.29-.03.54-.11.78-.08.24-.17.46-.3.65-.13.19-.29.37-.48.51-.19.14-.4.27-.62.37-.24.1-.48.18-.75.22-.27.05-.57.08-.91.08H1.15c-.11,0-.21-.03-.3-.11-.1-.06-.14-.19-.14-.38V2.58c0-.18.05-.3.14-.38.1-.08.19-.11.3-.11h2.05c.54,0,.99.05,1.32.16.35.1.64.26.86.45.22.19.4.43.52.72.11.29.17.61.17.97,0,.21-.03.41-.08.62-.05.21-.13.38-.22.54-.1.16-.22.32-.38.45-.16.13-.32.24-.52.32.24.05.48.13.68.26.21.13.4.29.56.48.16.19.29.41.38.67s.14.54.14.85h.03ZM4.85,4.51c0-.22-.03-.41-.1-.59-.06-.18-.16-.34-.29-.45-.13-.13-.3-.22-.51-.29-.21-.06-.49-.1-.83-.1h-1.24v2.94h1.37c.32,0,.56-.05.75-.13.19-.08.35-.19.48-.34.13-.14.22-.3.27-.48.06-.19.08-.38.08-.57h.02ZM5.39,8.65c0-.27-.05-.51-.13-.72-.08-.21-.21-.38-.38-.53-.16-.14-.37-.24-.62-.32-.25-.08-.56-.11-.94-.11h-1.43v3.19h1.75c.27,0,.51-.03.72-.1.21-.06.38-.16.54-.29.16-.13.27-.29.37-.48.1-.19.13-.41.13-.67v.02Z"/>
      <path class="st0" d="M13.74,10.99s0,.06-.03.1c0,.03-.05.05-.08.06-.05.02-.1.03-.16.05h-.51c-.06,0-.13-.02-.16-.05-.03-.02-.06-.05-.08-.06,0-.03-.02-.06-.02-.1v-.83c-.37.4-.72.69-1.07.86-.35.18-.7.27-1.07.27-.41,0-.78-.06-1.07-.21-.29-.14-.52-.34-.7-.57-.17-.24-.3-.53-.38-.85-.08-.32-.11-.7-.11-1.16v-3.83s0-.06.03-.1c0-.03.05-.05.1-.06.05-.02.11-.03.19-.05h.57c.08,0,.13.02.17.05.05.02.08.05.1.06.02.02.03.06.03.1v3.67c0,.37.03.67.08.89.05.22.13.41.24.57.11.16.25.27.41.37.17.08.37.13.59.13.29,0,.57-.1.86-.3.29-.21.59-.51.91-.91v-4.4s0-.06.03-.1c0-.03.05-.05.1-.06.05-.02.11-.03.17-.05h.57c.08,0,.13.02.18.05.05.02.08.05.1.06.02.03.03.06.03.1v6.32l-.03-.02Z"/>
      <path class="st0" d="M17.16,2.55c0,.27-.05.46-.16.56-.11.1-.29.14-.57.14s-.46-.05-.56-.14c-.1-.1-.14-.27-.14-.54s.05-.46.16-.56c.1-.1.29-.14.57-.14s.46.05.56.14c.1.1.14.27.14.54ZM17.04,10.99s0,.06-.03.1c-.02.03-.05.05-.1.06-.05.02-.1.03-.17.05-.08.02-.17,0-.29,0h-.29c-.08,0-.13-.02-.18-.05-.05-.02-.08-.05-.1-.06,0-.03-.03-.06-.03-.1v-6.32s0-.06.03-.1c.02-.03.05-.05.1-.06.05-.02.1-.03.18-.05h.57c.08,0,.13.02.17.05.05.02.08.05.1.06.02.02.03.06.03.1v6.32Z"/>
      <path class="st0" d="M20.31,10.99s0,.06-.03.1c-.02.03-.05.05-.1.06-.05.02-.1.03-.17.05h-.57c-.08,0-.14-.02-.18-.05-.05-.02-.08-.05-.1-.06,0-.03-.03-.06-.03-.1V1.62s0-.06.03-.1c.02-.03.05-.05.1-.06.05-.02.1-.03.18-.05h.57c.08,0,.13.02.17.05.05.02.08.05.1.06.02.02.03.06.03.1v9.37Z"/>
      <path class="st0" d="M27.84,10.99s0,.06-.03.1c0,.03-.05.05-.08.06-.03.02-.1.03-.16.03h-.48c-.06,0-.11-.02-.16-.03-.05,0-.08-.03-.1-.06-.02-.03-.03-.06-.03-.1v-.83c-.33.37-.67.64-1.03.85-.35.21-.75.3-1.18.3-.46,0-.86-.1-1.18-.27-.33-.18-.59-.41-.8-.73-.21-.3-.35-.67-.45-1.09-.1-.41-.14-.85-.14-1.31,0-.54.06-1.04.17-1.47.11-.43.29-.81.52-1.12.22-.3.51-.54.84-.72.33-.16.73-.26,1.18-.26.37,0,.7.08,1,.24.3.16.6.4.91.72V1.65s0-.06.03-.1c0-.03.05-.05.1-.06.05-.02.11-.03.18-.05.08,0,.16-.02.27-.02s.21,0,.29.02c.08,0,.13.03.17.05.05.02.08.03.1.06.02.03.03.06.03.1v9.34h.02ZM26.68,6.55c-.32-.38-.62-.69-.91-.89-.29-.21-.59-.3-.91-.3-.29,0-.54.06-.75.21-.21.14-.37.32-.49.56-.13.22-.22.49-.29.78-.06.29-.08.59-.08.88,0,.32.02.62.08.93.05.3.13.57.25.81.13.24.29.43.48.57.19.14.45.21.75.21.16,0,.3-.02.45-.06.14-.05.29-.11.43-.21.14-.1.3-.22.46-.38.16-.16.33-.35.52-.57v-2.52Z"/>
      <path class="st0" d="M31.26,2.55c0,.27-.05.46-.16.56-.11.1-.29.14-.57.14s-.46-.05-.56-.14c-.1-.1-.14-.27-.14-.54s.05-.46.16-.56c.1-.1.29-.14.57-.14s.46.05.56.14c.1.1.14.27.14.54ZM31.13,10.99s0,.06-.03.1c-.02.03-.05.05-.1.06-.05.02-.1.03-.17.05h-.57c-.08,0-.13-.02-.18-.05-.05-.02-.08-.05-.1-.06,0-.03-.03-.06-.03-.1v-6.32s0-.06.03-.1c.02-.03.05-.05.1-.06.05-.02.1-.03.18-.05h.57c.08,0,.13.02.17.05.05.02.08.05.1.06.02.03.03.06.03.1v6.32Z"/>
      <path class="st0" d="M38.67,10.99s0,.06-.03.1c-.02.03-.05.05-.1.06-.05.02-.1.03-.17.05h-.57c-.08,0-.13-.02-.18-.05-.05-.02-.08-.05-.1-.06-.02-.03-.03-.06-.03-.1v-3.7c0-.37-.03-.65-.08-.86-.06-.22-.14-.41-.24-.57-.11-.16-.24-.29-.41-.37-.17-.08-.37-.13-.59-.13-.29,0-.57.1-.86.3-.29.21-.59.51-.91.91v4.4s0,.06-.03.1c-.02.03-.05.05-.1.06-.05.02-.1.03-.17.05h-.57c-.08,0-.13-.02-.17-.05-.05-.02-.08-.05-.1-.06,0-.03-.03-.06-.03-.1v-6.32s0-.06.02-.1c.02-.03.05-.05.08-.06.05-.02.1-.03.16-.05h.51c.06,0,.13.02.16.05.03.02.06.05.08.06.02.03.03.06.03.1v.83c.35-.4.7-.69,1.07-.88.35-.19.7-.27,1.07-.27.41,0,.78.06,1.07.21.29.14.52.34.7.57.17.24.3.51.38.85.08.32.11.7.11,1.15v3.85l.02.03Z"/>
      <path class="st0" d="M46.03,4.97c0,.16-.02.29-.06.35-.05.08-.1.11-.17.11h-.91c.16.18.27.35.35.56.06.21.1.41.1.64,0,.37-.06.69-.17.97-.11.29-.29.51-.49.72-.22.19-.48.34-.78.45-.3.1-.64.16-.99.16-.25,0-.49-.03-.73-.1s-.41-.16-.54-.26c-.08.08-.16.18-.21.29s-.08.24-.08.37c0,.16.08.3.22.4.16.11.35.16.6.18l1.64.06c.32,0,.6.05.86.13.25.08.49.19.68.34.19.14.33.32.45.53.11.21.16.45.16.72,0,.29-.06.56-.19.83-.13.26-.3.49-.56.69-.25.19-.57.35-.95.46-.38.11-.84.18-1.37.18s-.94-.05-1.29-.13c-.35-.08-.65-.21-.87-.35-.22-.14-.4-.34-.49-.54-.11-.21-.16-.43-.16-.67,0-.16.02-.3.06-.45.03-.14.1-.29.17-.41.08-.13.17-.26.29-.38.11-.11.24-.24.4-.35-.22-.11-.4-.27-.51-.45-.11-.18-.16-.37-.16-.57,0-.29.06-.54.17-.77.11-.22.25-.43.43-.61-.14-.18-.25-.37-.35-.59-.08-.22-.13-.48-.13-.78,0-.37.06-.69.17-.97.11-.29.29-.53.51-.72.21-.19.48-.35.78-.45.3-.11.62-.16.99-.16.19,0,.37,0,.54.03.16.02.32.05.46.1h1.91s.14.03.17.11c.05.08.06.19.06.35h-.02ZM44.81,11.63c0-.27-.11-.48-.33-.62-.22-.14-.52-.22-.89-.24l-1.62-.06c-.14.11-.27.22-.37.34-.1.11-.17.21-.22.3-.06.1-.1.19-.11.29-.02.1-.03.19-.03.29,0,.3.16.53.46.69.3.16.73.24,1.29.24.35,0,.64-.03.87-.1.24-.06.43-.16.57-.27.14-.11.25-.24.32-.38.06-.14.1-.3.1-.46h-.03ZM44.24,6.63c0-.43-.11-.77-.35-1.01-.24-.24-.57-.37-1-.37-.22,0-.41.03-.59.11-.16.08-.3.18-.41.3-.11.13-.19.29-.24.45-.05.18-.08.35-.08.54,0,.41.11.75.35.99.24.24.57.35.99.35.22,0,.43-.03.59-.11.17-.06.3-.18.41-.3.11-.13.19-.27.24-.45.05-.18.08-.35.08-.53l.02.02Z"/>
      <path class="st0" d="M50.44,8.77c0-.26.03-.49.11-.73.06-.22.17-.46.33-.67.14-.22.35-.43.59-.64s.52-.41.87-.61c-.19-.26-.35-.48-.48-.69-.13-.21-.24-.4-.33-.57-.08-.18-.14-.35-.19-.51-.03-.16-.06-.32-.06-.49,0-.29.05-.56.14-.83.1-.27.25-.49.48-.7.22-.21.49-.37.84-.48.33-.13.75-.18,1.24-.18.41,0,.76.05,1.07.13.3.1.56.21.75.38.19.16.35.37.45.59.1.22.14.49.14.78s-.05.53-.13.75c-.1.22-.24.45-.43.67-.19.21-.45.43-.75.64-.3.21-.67.43-1.11.67.16.19.33.4.52.61.19.21.38.41.59.62.21.21.41.41.62.62.21.21.41.4.62.59.1-.13.17-.27.25-.43.08-.16.14-.34.19-.51.06-.18.1-.37.13-.54.03-.19.05-.38.05-.57v-.26s0-.08.03-.11c0-.03.05-.06.08-.08.03-.02.1-.03.16-.05h.54c.08,0,.13,0,.17.03.05.02.08.05.1.08.02.03.03.08.03.14v.18c0,.26-.02.53-.06.77-.05.26-.11.49-.18.73-.08.24-.17.48-.29.69-.11.22-.24.43-.38.61.21.18.4.3.54.41.16.11.29.21.4.27.11.06.21.11.27.14.08.03.13.05.17.05h.13s.08,0,.1.02c.03.02.05.06.06.11,0,.06.02.14.02.26v.29c0,.06,0,.13-.03.16,0,.03-.03.06-.06.08-.03.02-.08.05-.16.06-.08.02-.17.03-.29.03-.1,0-.19-.02-.3-.05-.11-.03-.24-.1-.4-.18-.14-.08-.32-.19-.52-.34-.19-.14-.43-.32-.7-.53-.19.16-.4.3-.62.45-.22.13-.45.26-.7.35-.24.1-.49.18-.76.22-.27.05-.56.08-.87.08-.29,0-.57-.03-.84-.08-.27-.05-.51-.13-.73-.22-.22-.1-.43-.22-.6-.37-.17-.14-.33-.3-.45-.49-.13-.19-.22-.4-.29-.62-.06-.22-.1-.48-.1-.75l.03.02ZM51.68,8.66c0,.24.05.46.13.67.08.21.21.37.37.53.16.14.35.26.59.34.24.08.51.13.83.13.19,0,.38-.02.56-.06.17-.03.35-.1.52-.16.16-.06.32-.14.48-.24.14-.1.29-.19.41-.3-.24-.21-.48-.43-.73-.65-.24-.22-.48-.45-.7-.69-.22-.22-.45-.46-.65-.69-.21-.22-.4-.45-.57-.67-.24.14-.43.3-.59.45-.16.14-.29.29-.38.45-.1.14-.16.3-.21.45-.05.14-.06.3-.06.46h.02ZM52.49,3.78c0,.13.02.26.05.38.03.13.1.27.16.41.06.14.16.3.27.46.11.16.22.35.37.54.33-.19.62-.37.86-.53.22-.16.41-.32.56-.46.14-.14.24-.3.3-.45.06-.14.1-.3.1-.48,0-.13-.03-.27-.08-.38-.05-.13-.13-.24-.24-.34-.11-.1-.24-.18-.4-.22-.16-.06-.37-.08-.59-.08-.25,0-.46.03-.62.1-.17.06-.3.14-.41.26-.11.11-.19.22-.24.37s-.08.29-.08.43v-.02Z"/>
      <path class="st0" d="M65.09,10.99s0,.06-.03.1c-.03.03-.05.05-.1.06s-.11.03-.19.05c-.08,0-.17.02-.29.02s-.21,0-.29-.02c-.08,0-.14-.03-.19-.05s-.08-.03-.1-.06c-.02-.03-.03-.06-.03-.1V2.28s0-.06.03-.1c.02-.03.06-.05.11-.06.05,0,.11-.03.19-.05.08,0,.17-.02.27-.02.11,0,.21,0,.29.02.08,0,.14.03.19.05.05.02.08.03.1.06s.03.06.03.1v8.71Z"/>
      <path class="st0" d="M72.77,10.99s0,.06-.03.1c-.02.03-.05.05-.1.06-.05.02-.1.03-.18.05h-.57c-.08,0-.13-.02-.17-.05-.05-.02-.08-.05-.1-.06-.02-.03-.03-.06-.03-.1v-3.7c0-.37-.03-.65-.08-.86-.06-.22-.14-.41-.24-.57-.1-.16-.24-.29-.41-.37-.18-.08-.37-.13-.59-.13-.29,0-.57.1-.86.3-.29.21-.59.51-.91.91v4.4s0,.06-.03.1c-.02.03-.05.05-.1.06-.05.02-.1.03-.17.05-.08.02-.17,0-.29,0h-.29c-.08,0-.13-.02-.17-.05-.05-.02-.08-.05-.1-.06,0-.03-.03-.06-.03-.1v-6.32s0-.06.02-.1c.02-.03.05-.05.08-.06.05-.02.1-.03.16-.05h.51c.06,0,.13.02.16.05.03.02.06.05.08.06.02.03.03.06.03.1v.83c.35-.4.7-.69,1.07-.88.35-.19.7-.27,1.07-.27.41,0,.78.06,1.07.21.29.14.52.34.7.57.17.24.3.51.38.85.08.32.11.7.11,1.15v3.85l.02.03Z"/>
      <path class="st0" d="M80.26,10.99s0,.06-.03.1c0,.03-.05.05-.08.06-.03.02-.1.03-.16.03h-.48c-.06,0-.11-.02-.16-.03-.05,0-.08-.03-.1-.06-.02-.03-.03-.06-.03-.1v-.83c-.33.37-.67.64-1.03.85-.35.21-.75.3-1.18.3-.46,0-.86-.1-1.18-.27-.32-.18-.59-.41-.8-.73-.21-.3-.35-.67-.45-1.09-.1-.41-.14-.85-.14-1.31,0-.54.06-1.04.17-1.47.11-.43.29-.81.52-1.12.22-.3.51-.54.84-.72.33-.16.73-.26,1.18-.26.37,0,.7.08,1,.24.3.16.6.4.91.72V1.65s0-.06.03-.1c0-.03.05-.05.1-.06.05-.02.11-.03.18-.05.08,0,.16-.02.27-.02s.21,0,.29.02c.08,0,.13.03.17.05.05.02.08.03.1.06.02.03.03.06.03.1v9.34h.02ZM79.1,6.55c-.32-.38-.62-.69-.91-.89-.29-.21-.59-.3-.91-.3-.29,0-.54.06-.75.21-.21.14-.37.32-.49.56-.13.22-.22.49-.29.78-.06.29-.08.59-.08.88,0,.32.02.62.08.93.05.3.13.57.25.81.13.24.29.43.48.57.19.14.45.21.75.21.16,0,.3-.02.45-.06.14-.05.29-.11.43-.21.14-.1.3-.22.46-.38.16-.16.33-.35.53-.57v-2.52Z"/>
      <path class="st0" d="M87.79,10.99s0,.06-.03.1c0,.03-.05.05-.08.06-.03.02-.1.03-.16.05h-.51c-.06,0-.13-.02-.16-.05-.03-.02-.06-.05-.08-.06,0-.03-.02-.06-.02-.1v-.83c-.37.4-.72.69-1.07.86-.35.18-.7.27-1.07.27-.41,0-.78-.06-1.07-.21-.29-.14-.52-.34-.7-.57-.18-.24-.3-.53-.38-.85-.08-.32-.11-.7-.11-1.16v-3.83s0-.06.03-.1c0-.03.05-.05.1-.06.05-.02.11-.03.19-.05h.57c.08,0,.13.02.18.05.05.02.08.05.1.06.02.03.03.06.03.1v3.67c0,.37.03.67.08.89.05.22.13.41.24.57.11.16.25.27.41.37.17.08.37.13.59.13.29,0,.57-.1.86-.3.29-.21.59-.51.91-.91v-4.4s0-.06.03-.1c0-.03.05-.05.1-.06.05-.02.11-.03.17-.05h.57c.08,0,.13.02.18.05.05.02.08.05.1.06.02.03.03.06.03.1v6.32l-.03-.02Z"/>
      <path class="st0" d="M93.88,9.28c0,.32-.06.61-.18.86-.11.26-.29.46-.51.64-.22.18-.48.3-.78.4-.3.1-.64.13-1,.13-.22,0-.43-.02-.64-.05-.21-.03-.38-.08-.54-.13-.16-.05-.3-.11-.41-.18-.11-.06-.19-.11-.24-.16-.05-.05-.1-.11-.11-.19-.02-.08-.03-.19-.03-.35v-.22c0-.06.02-.11.03-.14,0-.03.03-.06.06-.08.03,0,.05-.03.08-.03.05,0,.13.03.22.1.1.06.22.13.37.21.14.08.32.14.53.21.21.06.43.1.7.1.19,0,.37-.02.53-.06.16-.05.3-.1.41-.19.11-.08.21-.19.27-.32.06-.13.1-.27.1-.45s-.05-.34-.14-.45c-.1-.13-.21-.22-.37-.32-.14-.1-.32-.18-.51-.26-.19-.08-.38-.14-.57-.22-.19-.08-.4-.18-.59-.27-.19-.1-.35-.22-.51-.37-.14-.14-.27-.32-.37-.53-.1-.21-.14-.45-.14-.72,0-.26.05-.48.14-.72.1-.22.24-.43.43-.59.19-.18.43-.3.72-.41.29-.1.62-.16,1-.16.18,0,.33,0,.51.05.17.03.32.06.46.11.13.05.25.1.35.14.1.05.17.1.22.13.05.03.08.06.1.1.02.03.03.06.03.1s0,.08.02.13v.4c0,.06-.02.11-.03.14-.02.03-.03.06-.06.08-.02.02-.05.03-.08.03-.05,0-.1-.03-.17-.08-.08-.05-.18-.11-.3-.16-.13-.06-.27-.11-.45-.16-.17-.05-.37-.08-.59-.08-.19,0-.37.02-.51.06-.14.05-.27.11-.37.19-.1.08-.17.18-.22.29-.05.11-.08.24-.08.37,0,.18.05.34.14.46.1.13.21.24.37.32.14.1.32.18.51.26.19.08.38.16.59.24.19.08.4.18.59.27.19.1.37.22.51.35.14.14.27.3.37.51.1.19.14.43.14.7l.02-.02Z"/>
      <path class="st0" d="M98.64,10.53c0,.13,0,.24-.03.32-.02.08-.05.14-.08.18-.03.03-.1.08-.18.11-.08.03-.16.06-.25.08-.1.02-.19.03-.3.05-.11,0-.21.02-.32.02-.33,0-.6-.05-.84-.13-.24-.08-.43-.22-.57-.4-.14-.18-.25-.4-.32-.67-.06-.27-.1-.59-.1-.96v-3.69h-.87s-.13-.03-.18-.11c-.05-.08-.06-.19-.06-.37,0-.1,0-.16.02-.22,0-.06.03-.11.05-.14.02-.03.05-.06.08-.08.03,0,.06-.03.1-.03h.87v-1.5s0-.06.03-.1c0-.03.05-.05.1-.08.05-.02.11-.03.18-.05h.57c.08,0,.13.03.18.05s.06.05.1.08c.02.03.03.06.03.1v1.5h1.62s.06,0,.1.03c.03.02.05.05.08.08.02.05.03.1.05.14v.22c0,.18-.02.29-.06.37-.05.08-.1.11-.17.11h-1.62v3.53c0,.43.06.77.19.99.13.22.35.34.68.34.11,0,.21,0,.29-.03.08-.02.16-.05.22-.06.06-.02.13-.05.17-.06.05-.02.1-.03.13-.03.02,0,.05,0,.06.02.02,0,.03.03.05.06,0,.03.02.08.03.13v.22Z"/>
      <path class="st0" d="M103.84,5.1v.26c0,.06,0,.13-.03.16,0,.05-.03.06-.05.1-.02.02-.05.03-.08.03s-.08,0-.14-.03c-.05-.02-.11-.05-.17-.06-.06-.02-.14-.05-.22-.06-.08-.02-.18-.03-.27-.03-.11,0-.22.02-.33.06s-.22.13-.35.24-.25.26-.38.43c-.13.18-.29.4-.44.65v4.15s0,.06-.03.1c-.02.03-.05.05-.1.06-.05.02-.1.03-.17.05h-.57c-.08,0-.13-.02-.18-.05-.05-.02-.08-.05-.1-.06,0-.03-.03-.06-.03-.1v-6.32s0-.06.02-.1c.02-.03.05-.05.08-.06.05-.02.1-.03.16-.05h.51c.06,0,.13.02.16.05.03.02.06.05.08.06.02.03.03.06.03.1v.93c.18-.26.33-.46.49-.62.14-.16.29-.29.43-.38.13-.1.27-.16.4-.19.13-.03.27-.05.4-.05h.21c.08,0,.16.02.24.03.08.02.16.03.22.06.06.02.11.05.14.06s.05.05.06.06c0,.02.02.05.03.08v.45Z"/>
      <path class="st0" d="M108.09,11.17l-.84,2.31s-.1.13-.21.18c-.11.03-.29.06-.53.06-.13,0-.22,0-.29-.02-.08,0-.13-.03-.18-.06-.05-.03-.06-.06-.06-.11s0-.1.03-.18l.86-2.2s-.08-.05-.13-.1c-.03-.05-.06-.08-.08-.13l-2.24-6.03c-.03-.1-.06-.18-.06-.24s.02-.1.06-.13c.03-.03.1-.05.18-.06.08,0,.19-.02.33-.02h.33c.08,0,.14.02.19.03.05.02.08.05.1.08.02.03.05.08.06.14l1.8,5.06h.02l1.73-5.09c.03-.1.06-.14.1-.18.05-.03.09-.05.17-.06.08,0,.19-.02.35-.02.13,0,.24,0,.32.02.08,0,.14.03.19.06.03.03.06.08.06.13s0,.13-.05.21l-2.26,6.27.03.06Z"/>
      <path class="st0" d="M107.45,81.89c0,.54-.1,1.02-.3,1.45-.21.43-.48.78-.83,1.09-.35.3-.78.51-1.26.67-.48.14-1,.22-1.54.22-.38,0-.75-.03-1.08-.1-.33-.06-.62-.14-.89-.24-.25-.1-.48-.19-.65-.3-.17-.1-.3-.19-.37-.26-.06-.06-.13-.16-.16-.27-.03-.11-.05-.26-.05-.45,0-.13,0-.24.02-.32,0-.08.03-.16.05-.21.03-.05.05-.1.1-.11.03-.02.08-.03.13-.03.08,0,.21.05.35.16.16.1.35.21.59.34.24.11.53.24.86.34.33.11.73.16,1.16.16.33,0,.64-.05.92-.13.27-.1.51-.22.71-.38.19-.16.35-.37.46-.61.11-.24.16-.51.16-.81,0-.34-.08-.61-.22-.85-.14-.24-.35-.43-.59-.61-.24-.18-.52-.34-.84-.48-.32-.14-.64-.3-.95-.45-.33-.16-.65-.32-.95-.51-.3-.19-.59-.4-.83-.65-.24-.26-.45-.54-.59-.88-.16-.34-.22-.73-.22-1.21s.1-.91.27-1.29c.18-.38.41-.7.73-.96.32-.26.68-.45,1.11-.59.43-.13.89-.21,1.4-.21.25,0,.51.02.78.06.25.05.51.11.73.18.22.08.43.16.6.26s.3.16.35.22c.06.06.1.1.11.13.01.03.03.08.05.13,0,.05.02.11.03.19v.56c0,.08-.02.16-.05.21-.02.06-.05.1-.08.13-.03.03-.06.05-.11.05-.06,0-.18-.05-.3-.13-.14-.08-.32-.18-.51-.29-.21-.11-.44-.21-.72-.29-.27-.08-.59-.13-.94-.13-.32,0-.6.05-.84.13-.24.08-.43.21-.59.35-.16.14-.27.32-.35.51-.08.19-.11.4-.11.62,0,.32.08.61.22.83.14.24.35.45.59.62.24.18.53.35.84.49s.64.3.97.45c.33.16.65.32.97.49.32.18.6.4.84.64.24.24.44.54.6.88.14.34.22.73.22,1.2l-.02-.02Z"/>
      <path class="st0" d="M117.36,83.5v.26c0,.06,0,.13-.03.19,0,.05-.03.1-.06.14-.03.05-.06.1-.13.16-.06.06-.19.14-.38.27-.19.13-.43.24-.72.35-.29.11-.6.21-.97.3-.36.08-.76.13-1.21.13-.75,0-1.43-.13-2.04-.38-.6-.26-1.11-.62-1.54-1.12-.43-.49-.75-1.1-.99-1.82-.22-.72-.35-1.55-.35-2.49s.13-1.82.37-2.57c.25-.75.59-1.39,1.03-1.91.45-.53.99-.93,1.61-1.2.62-.27,1.32-.41,2.07-.41.33,0,.65.03.97.1.32.06.6.14.88.24.27.1.51.21.72.34.21.13.35.22.43.3.08.08.13.14.16.18.03.05.05.1.06.14,0,.06.03.13.03.21v.27c0,.11,0,.22-.02.3,0,.08-.03.16-.05.21-.02.06-.05.1-.08.13-.03.03-.08.05-.13.05-.08,0-.21-.06-.35-.18s-.35-.24-.57-.38c-.24-.14-.53-.27-.86-.38s-.75-.18-1.21-.18c-.51,0-.99.1-1.4.3-.43.21-.78.51-1.08.91s-.53.89-.7,1.47c-.16.57-.25,1.23-.25,1.98s.08,1.39.24,1.95c.16.56.38,1.04.68,1.42.3.38.67.67,1.1.86s.92.29,1.46.29c.46,0,.86-.06,1.21-.18s.64-.24.88-.38c.24-.14.45-.27.61-.38.16-.11.27-.18.36-.18.05,0,.08,0,.11.03.03.02.05.05.06.1.02.05.03.13.05.21v.34l.03.03Z"/>
      <path class="st0" d="M127.71,84.91s0,.1-.03.13c-.01.03-.06.06-.13.08-.06.02-.14.03-.24.05-.1,0-.22.02-.37.02-.16,0-.29,0-.38-.02-.1,0-.18-.03-.24-.05-.06-.02-.09-.05-.13-.08-.03-.03-.03-.08-.03-.13v-5.14h-5.26v5.14s0,.1-.03.13c-.02.03-.06.06-.13.08-.06.02-.14.03-.24.05-.1.02-.22.02-.37.02s-.27,0-.37-.02c-.1-.02-.18-.03-.24-.05-.06-.02-.1-.05-.13-.08-.02-.03-.03-.08-.03-.13v-11.12s0-.1.03-.13c.02-.03.06-.06.13-.08.06-.02.14-.03.24-.05.09-.02.22-.02.37-.02s.27,0,.37.02c.1.02.18.03.24.05.06.02.1.05.13.08.02.03.03.08.03.13v4.64h5.26v-4.64s0-.1.03-.13c.02-.03.06-.06.13-.08.06-.02.14-.03.24-.05.09,0,.22-.02.38-.02.14,0,.27,0,.37.02.1,0,.18.03.24.05.06.02.1.05.13.08.02.03.03.08.03.13v11.12Z"/>
      <path class="st0" d="M139.45,84.6c.05.13.08.24.08.32s-.02.14-.06.18c-.05.05-.13.06-.24.08-.11,0-.26.02-.45.02h-.45c-.11,0-.19-.03-.26-.05-.06-.02-.1-.05-.13-.08s-.05-.08-.08-.13l-.99-2.82h-4.8l-.96,2.79s-.05.1-.06.14c-.03.03-.08.06-.13.1-.06.03-.14.05-.24.06-.1.02-.24.02-.41.02s-.32,0-.43-.02c-.11,0-.19-.05-.24-.08-.05-.05-.06-.1-.06-.19,0-.08.03-.19.08-.32l3.88-10.77s.06-.11.1-.16c.03-.05.1-.08.18-.1.08-.02.18-.03.29-.05h.92c.13,0,.22.03.3.05.08.03.14.06.17.11.05.05.08.1.1.16l3.88,10.77v-.03ZM134.47,75.09l-1.99,5.78h4.03l-2.02-5.78h-.01Z"/>
      <path class="st0" d="M148.92,84.89s0,.1-.03.13c-.02.03-.06.06-.13.1-.06.02-.14.05-.24.06-.1.02-.24.02-.4.02-.21,0-.38,0-.51-.03-.13-.02-.22-.05-.3-.1-.06-.05-.11-.1-.16-.16l-4.25-5.79v5.79s0,.08-.03.13c-.02.03-.06.06-.13.1-.06.02-.14.03-.24.05-.1.02-.22.02-.37.02s-.27,0-.36-.02c-.1-.02-.18-.03-.24-.05-.06-.02-.1-.05-.13-.1-.02-.03-.03-.08-.03-.13v-11.12s0-.1.03-.13c.02-.03.06-.06.13-.08.06-.02.14-.03.24-.05.1-.02.22-.02.36-.02s.27,0,.37.02c.1.02.17.03.24.05.06.02.1.05.13.08.02.03.03.08.03.13v5.15l4.09-5.15s.08-.1.13-.13c.05-.03.11-.06.18-.08.06-.02.16-.03.26-.05.1-.02.22-.02.38-.02s.29,0,.38.02c.1.02.17.03.22.06.06.02.1.05.11.1.02.03.03.08.03.11,0,.08-.02.16-.06.24-.03.08-.11.19-.22.32l-3.83,4.6,4.12,5.51c.1.16.16.26.19.32.02.06.03.1.03.14l.02-.03Z"/>
      <path class="st0" d="M159.7,79.21c0,.94-.11,1.79-.33,2.54-.22.75-.54,1.39-.99,1.91-.45.53-.99.94-1.65,1.21-.67.29-1.43.43-2.31.43s-1.62-.13-2.26-.38c-.64-.26-1.16-.64-1.57-1.13-.41-.49-.72-1.12-.92-1.85-.21-.73-.3-1.58-.3-2.54s.11-1.74.33-2.49c.22-.75.56-1.39.99-1.9.45-.53.99-.93,1.65-1.21s1.43-.43,2.31-.43,1.59.13,2.23.38c.64.26,1.16.64,1.57,1.12.41.49.73,1.1.94,1.84.21.73.3,1.56.3,2.49l.02.02ZM158.06,79.32c0-.65-.06-1.26-.18-1.84-.11-.56-.3-1.05-.57-1.47-.27-.41-.64-.73-1.08-.97-.45-.24-1-.35-1.67-.35s-1.23.13-1.67.38c-.45.26-.81.59-1.1,1.01-.29.41-.48.91-.6,1.47-.13.56-.18,1.15-.18,1.76,0,.69.06,1.31.18,1.88.11.57.3,1.07.57,1.48.27.41.62.73,1.08.97.44.22,1.02.35,1.69.35s1.24-.13,1.7-.38c.46-.26.83-.59,1.11-1.02.29-.43.48-.93.61-1.48.11-.56.17-1.15.17-1.79h-.06Z"/>
      <path class="st0" d="M174.94,75.12c0,.11,0,.21-.02.3,0,.08-.03.16-.05.21-.02.06-.05.1-.1.13-.03.02-.08.03-.11.03-.06,0-.19-.06-.35-.18-.18-.11-.4-.24-.67-.38-.29-.14-.62-.26-1-.38-.38-.13-.86-.18-1.38-.18-.64,0-1.21.11-1.72.35-.51.24-.94.56-1.29.97-.35.41-.62.91-.81,1.47-.19.57-.29,1.18-.29,1.85,0,.73.1,1.4.3,1.98.21.57.49,1.05.86,1.45.37.4.8.69,1.3.89.51.21,1.05.3,1.65.3.35,0,.72-.05,1.08-.13.37-.08.72-.22,1.02-.38v-3.38h-2.67c-.1,0-.17-.05-.22-.16-.05-.1-.08-.26-.08-.48,0-.11,0-.21.02-.29,0-.08.03-.14.06-.19.03-.05.06-.1.1-.11.03-.03.08-.03.13-.03h3.67s.13,0,.19.03.13.06.18.11c.05.05.1.11.13.19.03.08.05.18.05.29v4.42c0,.16-.03.29-.08.4-.05.11-.16.21-.33.3-.18.08-.4.18-.67.29-.27.1-.56.19-.84.26-.29.06-.59.13-.89.16-.3.03-.59.05-.89.05-.89,0-1.69-.14-2.39-.41s-1.3-.67-1.78-1.18c-.48-.51-.86-1.13-1.11-1.85-.26-.72-.38-1.52-.38-2.39s.14-1.76.41-2.51c.27-.75.67-1.39,1.18-1.91.51-.53,1.11-.93,1.81-1.23.7-.29,1.48-.43,2.34-.43.45,0,.86.03,1.24.11.38.08.73.18,1.03.27.3.11.56.22.76.34.21.13.35.22.43.3.08.08.13.18.16.27.03.1.05.26.05.43l-.03.03Z"/>
      <path class="st0" d="M182.32,77.39v.34c0,.1-.02.16-.03.21-.02.05-.05.1-.06.11-.03.03-.06.05-.11.05s-.11,0-.17-.05c-.06-.03-.14-.05-.24-.08-.08-.03-.19-.05-.29-.08-.11-.03-.22-.03-.35-.03-.14,0-.3.03-.45.1-.14.06-.29.16-.45.3s-.32.32-.49.54c-.18.22-.37.51-.57.83v5.3s0,.1-.03.13c-.03.03-.06.06-.11.08-.05.03-.13.05-.22.05s-.22.02-.37.02-.26,0-.35-.02c-.1,0-.18-.03-.22-.05-.06-.03-.1-.05-.11-.08-.02-.03-.03-.08-.03-.13v-8.06s0-.1.03-.13c.02-.03.05-.06.11-.1.05-.03.13-.05.21-.05h.67c.08,0,.16.03.21.05.05.03.08.06.1.1.02.03.03.08.03.13v1.18c.22-.32.43-.59.62-.78.19-.21.38-.37.56-.48.17-.11.35-.19.51-.24.18-.05.33-.06.51-.06h.27c.09,0,.21.03.3.05.11.02.21.05.29.08.08.03.14.06.19.1.03.03.06.06.06.08,0,.03.01.06.03.1,0,.05,0,.1.02.18v.34h-.05Z"/>
      <path class="st0" d="M191.18,80.8c0,.65-.08,1.26-.25,1.82-.18.56-.43,1.02-.78,1.44-.33.4-.76.72-1.29.94-.51.22-1.11.34-1.78.34s-1.24-.1-1.73-.3c-.49-.19-.91-.48-1.22-.86-.33-.38-.57-.83-.73-1.37-.16-.54-.24-1.15-.24-1.84s.08-1.26.25-1.82c.18-.56.43-1.04.76-1.44.33-.4.76-.72,1.29-.93.51-.22,1.11-.34,1.8-.34s1.24.1,1.73.29c.49.19.91.48,1.23.86.33.38.57.83.73,1.37.16.54.24,1.15.24,1.82v.02ZM189.66,80.9c0-.43-.05-.85-.13-1.23-.08-.38-.21-.73-.4-1.02-.19-.29-.45-.53-.76-.7-.32-.18-.72-.26-1.19-.26-.45,0-.81.08-1.13.24-.32.16-.57.37-.78.65-.21.29-.35.62-.46,1.01-.1.38-.14.81-.14,1.28s.05.86.13,1.24c.08.38.22.73.4,1.02.19.29.44.53.76.69.32.18.72.26,1.19.26.43,0,.81-.08,1.13-.24.32-.16.57-.37.78-.65.21-.29.35-.62.44-1.01.1-.38.14-.81.14-1.28h.02Z"/>
      <path class="st0" d="M200.25,84.92s0,.1-.03.13c-.01.03-.06.06-.11.08-.05.03-.13.05-.21.05s-.19.02-.32.02c-.14,0-.25,0-.33-.02-.08,0-.16-.03-.21-.05-.05-.03-.08-.05-.1-.08-.02-.03-.03-.08-.03-.13v-1.07c-.46.51-.91.88-1.35,1.12-.45.24-.89.35-1.35.35-.54,0-.99-.1-1.35-.27-.37-.18-.67-.43-.89-.73-.22-.3-.38-.67-.49-1.07-.1-.41-.14-.91-.14-1.48v-4.9s0-.1.03-.13c.02-.03.06-.06.13-.1.06-.03.14-.05.24-.05h.7c.1,0,.18.03.22.05.06.03.1.06.13.1.03.03.03.08.03.13v4.69c0,.48.03.85.1,1.13.06.29.18.53.32.73.14.21.32.35.52.46s.46.16.75.16c.37,0,.73-.13,1.1-.4s.75-.65,1.16-1.15v-5.63s0-.1.03-.13c.02-.03.06-.06.13-.1.06-.03.14-.05.22-.05h.72c.1,0,.18.03.22.05.05.03.1.06.13.1.03.03.05.08.05.13v8.06Z"/>
      <path class="st0" d="M210.36,80.76c0,.7-.08,1.34-.22,1.9-.16.56-.38,1.04-.67,1.44-.3.4-.65.69-1.1.91-.43.21-.92.32-1.5.32-.24,0-.46-.02-.65-.06-.21-.05-.4-.13-.59-.22-.19-.1-.38-.22-.57-.38-.19-.16-.4-.34-.6-.54v4.04s0,.1-.03.13c-.03.03-.06.06-.11.1-.05.03-.13.05-.22.05s-.22.02-.37.02-.26,0-.35-.02c-.1,0-.18-.03-.22-.05-.06-.03-.1-.05-.11-.1-.02-.03-.03-.08-.03-.13v-11.27s0-.1.03-.13c.02-.03.05-.06.11-.08.05-.02.13-.03.21-.05h.6c.08,0,.14.03.21.05.05.03.1.05.11.08.02.03.03.08.03.13v1.09c.24-.26.48-.46.7-.65.22-.19.46-.34.68-.46.22-.13.46-.21.7-.27.24-.06.49-.1.76-.1.59,0,1.08.11,1.49.34.41.22.75.54,1,.93.26.4.45.85.57,1.37.11.53.18,1.07.18,1.66l-.05-.02ZM208.84,80.93c0-.41-.03-.81-.1-1.2-.06-.38-.18-.73-.32-1.02-.16-.3-.37-.54-.62-.72-.25-.18-.57-.27-.95-.27-.19,0-.38.03-.57.08-.19.06-.38.14-.57.27-.19.13-.4.29-.6.48-.21.21-.43.45-.67.73v3.21c.41.49.79.88,1.16,1.13.37.26.75.4,1.14.4.37,0,.68-.1.96-.27.27-.18.48-.41.65-.72.16-.3.29-.64.37-1.01.08-.37.11-.75.11-1.12l.02.02Z"/>
      <path class="st0" d="M219.88,22.97c-1.07-3-1.67-7.71-1.7-7.85-3.93.89-7.41,2.92-10.13,5.71l10.74,8.51c.91-.62,1.99-1.01,3.13-1.15-.05-.16-.1-.32-.14-.48-.46-1.56-1.42-3.41-1.89-4.74Z"/>
      <path class="st0" d="M222.29,43.91l-3.56,11.62c1.16.24,2.35.35,3.56.38v-12Z"/>
      <path class="st0" d="M215.69,35.76c0-.18-.05-.34-.05-.49,0-.99.21-1.93.56-2.79-.14-.03-.3-.06-.45-.11-1.57-.38-3.66-.48-5.04-.73-1.24-.22-2.67-.65-3.96-1.09,1.72,2.23,2.83,4.72,3.31,7.45l5.63-2.25v.02Z"/>
      <path class="st0" d="M205.19,24.54l10.34,5.98-8.22-8.89c-.79.89-1.49,1.87-2.12,2.89v.02Z"/>
      <path class="st0" d="M217.68,55.26l1.99-13.6c-1.02-.49-1.89-1.23-2.56-2.12-.11.11-.22.24-.33.37-1.11,1.18-2.24,2.94-3.15,4.01-1.29,1.52-3.23,3.21-4.53,4.28-.24.57-.49,1.15-.79,1.69,2.56,2.55,5.79,4.45,9.4,5.38h-.02Z"/>
      <path class="st0" d="M215.07,39.17l-4.76,1.09c.02.37.05.73.05,1.1,0,.19-.02.37-.03.54l4.73-2.73h.02Z"/>
      <path class="st0" d="M227.85,15.25l-1.99,13.6c1.02.49,1.89,1.23,2.56,2.12.11-.11.22-.24.33-.37,1.11-1.18,2.24-2.94,3.15-4.01,2.02-2.39,5.68-5.2,5.92-5.39-2.66-2.86-6.09-4.96-9.99-5.97l.02.02Z"/>
      <path class="st0" d="M230.47,31.34l11.79-2.7c-.38-1.15-.86-2.25-1.43-3.3l-10.36,6Z"/>
      <path class="st0" d="M242.45,41.34c.59-1.93.92-3.97.92-6.1,0-1.93-.29-3.8-.78-5.59l-12.74,5.07c0,.18.05.34.05.49,0,.99-.21,1.93-.56,2.79.14.03.3.06.45.11,1.57.38,3.66.48,5.04.73,3.18.57,7.64,2.46,7.64,2.46l-.02.02Z"/>
      <path class="st0" d="M223.23,26.61l3.56-11.62c-1.16-.24-2.35-.35-3.56-.38v12Z"/>
      <path class="st0" d="M223.63,42.31c.05.16.1.32.14.48.46,1.56,1.42,3.41,1.89,4.74,1.07,3.02,1.69,7.71,1.7,7.85,3.93-.89,7.41-2.92,10.13-5.71l-10.74-8.51c-.91.62-1.99,1.01-3.13,1.15Z"/>
      <path class="st0" d="M240.35,45.99l-10.34-5.98,8.22,8.89c.79-.89,1.5-1.87,2.12-2.89v-.02Z"/>
      <path class="st0" d="M222.77,9.25c-10.51,0-19.55,6.29-23.62,15.32.59.24,1.16.53,1.73.85,3.77-8.38,12.15-14.23,21.89-14.23,13.24,0,24,10.8,24,24.08s-10.77,24.08-24,24.08c-6.36,0-12.14-2.52-16.45-6.57-.4.48-.81.93-1.26,1.39,0,0-.03.03-.05.05,4.64,4.37,10.86,7.09,17.75,7.09,14.32,0,25.93-11.65,25.93-26.01s-11.61-26.01-25.93-26.01v-.02Z"/>
      <path class="st0" d="M18.09,26.21v13.02l-7.49-13.02H.7v30.53h9.56v-13.95l8.18,13.95h9.23v-30.53h-9.58Z"/>
      <path class="st0" d="M174.54,56.74h-4.29c-5.03,0-8.45-1.47-11.47-4.91-2.61-2.98-3.93-6.48-3.93-10.37,0-4.5,1.83-8.73,5.03-11.66,2.51-2.35,5.85-3.57,9.59-3.57h5.07v8.86h-2.34c-2.83,0-4.39.51-5.71,1.88-1.27,1.24-1.93,2.81-1.93,4.69,0,2.3,1,4.28,2.88,5.46,1.37.93,2.24,1.1,5.3,1.1h1.78v8.54h.02Z"/>
      <path class="st0" d="M208.11,41.39c0,8.71-7.08,15.81-15.72,15.81s-15.84-7.05-15.84-15.77,7.05-15.89,15.99-15.89,15.57,7.2,15.57,15.86v-.02ZM186.22,41.29c0,3.62,2.77,6.61,6.17,6.61s6.04-2.98,6.04-6.56-2.72-6.51-6.17-6.51-6.04,2.89-6.04,6.46Z"/>
      <path class="st0" d="M61.88,41.39c0,8.71-7.08,15.81-15.72,15.81s-15.84-7.05-15.84-15.77,7.05-15.89,15.99-15.89,15.57,7.2,15.57,15.86v-.02ZM39.99,41.29c0,3.62,2.77,6.61,6.17,6.61s6.04-2.98,6.04-6.56-2.72-6.51-6.17-6.51-6.04,2.89-6.04,6.46Z"/>
      <path class="st0" d="M142.29,26.21v13.02l-7.78-13.02h-10.26v30.53h9.93v-13.95l8.46,13.95h9.56v-30.53h-9.91Z"/>
      <path class="st0" d="M84.45,26.21l-7.09,19.39-7.11-19.39h-9.93l10.85,30.53h12.36l10.9-30.53h-9.97Z"/>
      <path class="st0" d="M120.91,34.53v-8.31h-23.83v30.53h23.83v-7.8h-14.27v-3.64h9.51v-7.13h-9.51v-3.64h14.27Z"/>
    </g>
  </g>
</svg>