<svg width="112" height="30" viewBox="0 0 112 30" fill="none" xmlns="http://www.w3.org/2000/svg">
<g clip-path="url(#clip0_126_24)">
<path d="M12.525 15.3L29.9925 15.1425V14.9925C29.9925 14.565 29.9775 14.145 29.94 13.725L13.155 13.545C13.08 13.545 13.0125 13.4775 13.0125 13.4025C13.0125 13.3275 13.08 13.26 13.155 13.26L29.8725 13.1025C29.8125 12.6225 29.73 12.15 29.625 11.685L13.7775 11.505C13.7025 11.505 13.635 11.4375 13.635 11.3625C13.635 11.2875 13.7025 11.22 13.7775 11.22L29.4675 11.0625C29.3325 10.575 29.1825 10.11 29.01 9.645L14.415 9.465C14.34 9.465 14.2725 9.3975 14.2725 9.3225C14.2725 9.2475 14.34 9.18 14.415 9.18L28.7625 9.0225C26.4675 3.7275 21.1725 0 15 0C7.6575 0 1.545 5.2725 0.255 12.2475L21.78 11.9475L21.495 12.87L0.2025 12.5325C0.10431 13.1079 0.044179 13.6892 0.0225 14.2725L21.15 13.9725L20.865 14.895L0 14.5575V15C0 15.435 0.015 15.87 0.0525 16.2975L20.5125 15.9975L20.2275 16.92L0.0825 16.5825C0.1425 17.1675 0.24 17.745 0.3675 18.3075L19.89 18.015L19.605 18.9375L0.4425 18.615C0.585 19.2075 0.765 19.7775 0.9825 20.34L19.2525 20.0475L18.9675 20.97L1.095 20.6475C1.335 21.24 1.6125 21.8175 1.9275 22.3725L18.63 22.0725L18.345 22.995L2.1075 22.6725C2.475 23.28 2.8725 23.8575 3.315 24.405L17.91 24.0975L17.625 25.02L3.555 24.6975C4.96132 26.3646 6.71495 27.7043 8.69318 28.6228C10.6714 29.5413 12.8264 30.0165 15.0075 30.015C21.6 30.015 27.195 25.7625 29.205 19.8525L11.265 19.6725C11.19 19.6725 11.1225 19.605 11.1225 19.53C11.1225 19.455 11.19 19.3875 11.265 19.3875L29.4 19.23C29.535 18.765 29.6475 18.2925 29.745 17.8125L11.9025 17.6325C11.8275 17.6325 11.76 17.565 11.76 17.49C11.76 17.415 11.8275 17.3475 11.9025 17.3475L29.85 17.19C29.9175 16.725 29.9625 16.26 29.985 15.78L12.5325 15.6C12.4575 15.6 12.39 15.5325 12.39 15.4575C12.39 15.3825 12.4575 15.315 12.5325 15.315M64.3425 9.345H59.8575L53.67 19.815H57.8775L58.8375 17.925H61.4475L61.56 19.815H65.19L64.3275 9.345H64.3425ZM59.925 15.4725L61.3125 12.5025L61.38 15.4725H59.925Z" fill="white"/>
<path d="M53.2874 12.795C53.1299 13.2825 52.8149 13.4025 52.1549 13.41H51.2699L51.6899 12.045H52.5149C53.0849 12.045 53.4224 12.345 53.2874 12.795ZM56.8049 12.4275C57.0449 11.3325 56.6099 9.345 53.0324 9.345H48.5549L45.2324 19.815H49.2224L50.5274 15.6L51.8549 19.815H55.9274L53.9774 15.495C55.8224 14.925 56.4449 13.9725 56.7899 12.4275M47.9699 9.345H38.2874L37.2749 12.5625H40.3574L38.0624 19.8225H42.0224L44.3174 12.5625H46.9574L47.9699 9.345ZM85.4099 12.345L86.3624 9.345H78.7799L75.4574 19.815H83.0549L83.9549 16.9725H80.1824L80.5049 15.96H84.2624L85.1099 13.2975H81.3524L81.6524 12.345H85.4174H85.4099ZM70.8599 19.815H74.5949L77.9174 9.3375H73.9574L72.5699 13.98L71.3999 9.3375H67.6274L64.3124 19.815H68.2724L69.6824 15.105L70.8749 19.815H70.8599ZM88.1399 9.8775V9.5025H88.3874C88.5149 9.5025 88.6499 9.5325 88.6499 9.6825C88.6499 9.87 88.5149 9.8775 88.3574 9.8775H88.1399ZM88.1399 10.035H88.3499L88.6724 10.56H88.8749L88.5299 10.0275C88.7099 10.005 88.8449 9.915 88.8449 9.6975C88.8449 9.4575 88.7024 9.3525 88.4174 9.3525H87.9599V10.56H88.1399V10.035ZM88.3574 10.995C88.9274 10.995 89.4149 10.5525 89.4149 9.945C89.4149 9.3375 88.9274 8.9025 88.3574 8.9025C87.7874 8.9025 87.2924 9.345 87.2924 9.945C87.2924 10.545 87.7799 10.995 88.3574 10.995ZM87.5024 9.945C87.5024 9.45 87.8774 9.075 88.3574 9.075C88.8374 9.075 89.2049 9.45 89.2049 9.945C89.2049 10.44 88.8299 10.8225 88.3574 10.8225C87.8849 10.8225 87.5024 10.455 87.5024 9.945Z" fill="white"/>
<path d="M36.8174 28.7025L37.7924 24.27H38.7374L37.7624 28.7025H36.8174ZM38.8799 28.0875C38.8799 28.05 38.8799 27.945 38.9024 27.87L39.2624 26.235H38.7299L38.8949 25.5H39.4274L39.6224 24.6225H40.4699L40.2749 25.5H40.9274L40.7549 26.235H40.1024L39.7874 27.645V27.7575C39.7874 27.93 39.8849 28.035 40.1024 28.035C40.1849 28.035 40.2974 27.9975 40.3349 27.9675L40.3574 28.6425C40.2374 28.725 40.0424 28.785 39.8324 28.785C39.2624 28.785 38.8724 28.5675 38.8724 28.0875M41.6249 26.0775L41.3249 25.7625C41.5574 25.6575 41.8649 25.4475 41.9774 25.2075H41.9024C41.6849 25.2075 41.4899 25.065 41.4899 24.7725C41.4899 24.4575 41.7824 24.2025 42.0824 24.2025C42.3524 24.2025 42.5999 24.39 42.5999 24.75C42.5999 25.26 42.1724 25.8075 41.6249 26.0775ZM42.0449 28.2075L42.5174 27.615C42.7124 27.84 43.1774 28.125 43.6424 28.125C43.9274 28.125 44.1074 27.9675 44.1074 27.795C44.1074 27.36 42.4724 27.4725 42.4724 26.505C42.4724 25.95 42.9374 25.425 43.7924 25.425C44.3399 25.425 44.8499 25.635 45.1499 25.9425L44.7149 26.505C44.5574 26.31 44.1599 26.085 43.7699 26.085C43.4699 26.085 43.3049 26.22 43.3049 26.385C43.3049 26.775 44.9399 26.685 44.9399 27.6675C44.9399 28.275 44.4299 28.7925 43.5524 28.7925C42.9674 28.7925 42.3974 28.5975 42.0449 28.215M49.9649 28.7025L50.3774 26.835H48.2849L47.8724 28.7025H46.9274L47.9024 24.27H48.8474L48.4724 26.01H50.5574L50.9399 24.27H51.8924L50.9174 28.7025H49.9724H49.9649ZM53.8499 27.945L53.9324 27.555C53.8049 27.375 53.5274 27.255 53.2049 27.255C52.8299 27.255 52.5974 27.48 52.5974 27.795C52.5974 28.0725 52.8224 28.2225 53.1749 28.2225C53.4674 28.2225 53.6849 28.1175 53.8424 27.9525L53.8499 27.945ZM53.6774 28.7025L53.7449 28.3725C53.5049 28.6125 53.1974 28.7775 52.7849 28.7775C52.2374 28.7775 51.7274 28.47 51.7274 27.8475C51.7274 27.12 52.2824 26.6775 52.9124 26.6775C53.3774 26.6775 53.7224 26.8125 54.0149 27.1125L54.0974 26.745C54.0974 26.745 54.1124 26.64 54.1124 26.5875C54.1124 26.295 53.7974 26.1 53.3624 26.1C53.0324 26.1 52.7324 26.2125 52.4699 26.4L52.2749 25.7925C52.6499 25.53 53.0849 25.4025 53.5499 25.4025C54.3074 25.4025 54.9824 25.6875 54.9824 26.4225C54.9824 26.4975 54.9599 26.6775 54.9449 26.7675L54.5174 28.695H53.6699L53.6774 28.7025ZM55.2374 28.7025L55.9499 25.4925H56.7974L56.6999 25.9125C56.9774 25.6125 57.3224 25.4175 57.8399 25.4175L57.6524 26.2575C57.5999 26.2425 57.4799 26.22 57.3524 26.22C57.0374 26.22 56.7449 26.3925 56.5499 26.61L56.0849 28.7175H55.2374V28.7025ZM58.5599 27.2775C58.5599 27.735 58.8674 28.0275 59.2724 28.0275C59.5724 28.0275 59.8424 27.8625 60.0074 27.6375L60.2474 26.5275C60.1049 26.31 59.8349 26.1525 59.4974 26.1525C58.9424 26.1525 58.5524 26.6775 58.5524 27.27M60.3824 25.9125L60.7424 24.2625H61.5899L60.6074 28.695H59.7599L59.8574 28.2975C59.5874 28.6125 59.2799 28.7775 58.8974 28.7775C58.1699 28.7775 57.6749 28.2975 57.6749 27.45C57.6749 26.4825 58.2824 25.41 59.3699 25.41C59.8049 25.41 60.1799 25.5975 60.3899 25.92M64.0799 28.7025L64.8749 25.1025H63.5774L63.7574 24.27H67.2974L67.1174 25.1025H65.8199L65.0324 28.7025H64.0874H64.0799ZM68.8724 26.9175C68.8724 26.4525 68.5949 26.1675 68.1299 26.1675C67.5674 26.1675 67.1699 26.7075 67.1699 27.285C67.1699 27.75 67.4549 28.035 67.9199 28.035C68.4824 28.035 68.8649 27.495 68.8649 26.9175M66.2924 27.3225C66.2924 26.325 67.0649 25.4175 68.1449 25.4175C69.1649 25.4175 69.7424 26.0325 69.7424 26.88C69.7424 27.8775 68.9699 28.785 67.8824 28.785C66.8624 28.785 66.2924 28.17 66.2924 27.3225ZM71.5124 27.9525L72.0974 27.255C72.4049 27.6675 72.9824 27.945 73.5899 27.945C74.0699 27.945 74.2574 27.675 74.2574 27.45C74.2574 26.8275 72.0974 26.94 72.0974 25.65C72.0974 24.9225 72.7424 24.21 73.8299 24.21C74.5349 24.21 75.2024 24.465 75.5999 24.9225L75.0074 25.5975C74.6774 25.2075 74.1374 25.0275 73.6874 25.0275C73.3499 25.0275 73.0949 25.2225 73.0949 25.4625C73.0949 26.04 75.2624 25.9725 75.2624 27.2475C75.2624 28.0575 74.6099 28.77 73.5149 28.77C72.6449 28.77 71.8799 28.4325 71.5049 27.9375M75.7424 28.0875C75.7424 28.05 75.7424 27.945 75.7649 27.87L76.1249 26.235H75.5924L75.7574 25.5H76.2899L76.4849 24.6225H77.3324L77.1374 25.5H77.7899L77.6249 26.235H76.9724L76.6574 27.645V27.7575C76.6574 27.93 76.7549 28.035 76.9724 28.035C77.0549 28.035 77.1674 27.9975 77.2049 27.9675L77.2274 28.6425C77.1074 28.725 76.9124 28.785 76.7024 28.785C76.1324 28.785 75.7424 28.5675 75.7424 28.0875ZM80.2799 26.9175C80.2799 26.4525 80.0024 26.1675 79.5374 26.1675C78.9674 26.1675 78.5774 26.7075 78.5774 27.285C78.5774 27.75 78.8624 28.035 79.3274 28.035C79.8899 28.035 80.2724 27.495 80.2724 26.9175M77.6999 27.3225C77.6999 26.325 78.4724 25.4175 79.5524 25.4175C80.5724 25.4175 81.1499 26.0325 81.1499 26.88C81.1499 27.8775 80.3774 28.785 79.2899 28.785C78.2699 28.785 77.6999 28.17 77.6999 27.3225ZM84.1049 26.9175C84.1049 26.46 83.8049 26.1675 83.3924 26.1675C83.0999 26.1675 82.8374 26.3325 82.6649 26.5575L82.4099 27.6675C82.5524 27.885 82.8224 28.0425 83.1599 28.0425C83.7149 28.0425 84.1049 27.5175 84.1049 26.925M82.2749 28.2825L81.9074 29.9325H81.0599L82.0424 25.5H82.8899L82.7924 25.8975C83.0624 25.5825 83.3774 25.4175 83.7599 25.4175C84.4874 25.4175 84.9749 25.8975 84.9749 26.745C84.9749 27.705 84.3824 28.785 83.2874 28.785C82.8524 28.785 82.4774 28.5975 82.2674 28.275M89.4674 25.215L88.3574 27.12H89.7374L89.4674 25.215ZM89.9249 28.7025L89.8124 27.9525H87.9074L87.4724 28.7025H86.3474L89.0324 24.27H90.2174L90.9449 28.7025H89.9249ZM93.9524 28.7025L94.7549 25.1025H93.4574L93.6374 24.27H97.1699L96.9899 25.1025H95.6924L94.8974 28.7025H93.9449H93.9524ZM96.2549 28.7025L96.9674 25.4925H97.8149L97.7174 25.9125C97.9949 25.6125 98.3399 25.4175 98.8574 25.4175L98.6699 26.2575C98.6174 26.2425 98.4974 26.22 98.3624 26.22C98.0474 26.22 97.7549 26.3925 97.5599 26.61L97.0949 28.7175H96.2474H96.2549V28.7025ZM100.74 27.945L100.822 27.555C100.695 27.3675 100.417 27.255 100.095 27.255C99.7199 27.255 99.4799 27.48 99.4799 27.795C99.4799 28.0725 99.7049 28.2225 100.057 28.2225C100.35 28.2225 100.567 28.1175 100.725 27.9525M100.56 28.71L100.627 28.38C100.387 28.62 100.08 28.785 99.6674 28.785C99.1199 28.785 98.6099 28.4775 98.6099 27.855C98.6099 27.1275 99.1649 26.685 99.8024 26.685C100.267 26.685 100.612 26.82 100.905 27.12L100.987 26.7525C100.987 26.7525 101.002 26.6475 101.002 26.595C101.002 26.3025 100.687 26.1075 100.252 26.1075C99.9224 26.1075 99.6224 26.22 99.3599 26.4075L99.1649 25.8C99.5399 25.5375 99.9749 25.41 100.44 25.41C101.197 25.41 101.872 25.695 101.872 26.43C101.872 26.505 101.85 26.685 101.835 26.775L101.407 28.7025H100.56V28.71ZM104.295 28.7025L104.73 26.7525C104.745 26.6925 104.752 26.625 104.752 26.565C104.752 26.2725 104.512 26.16 104.205 26.16C103.92 26.16 103.635 26.355 103.455 26.535L102.982 28.7025H102.135L102.847 25.4925H103.695L103.597 25.905C103.852 25.665 104.197 25.41 104.662 25.41C105.277 25.41 105.667 25.725 105.667 26.2275C105.667 26.2875 105.645 26.4225 105.63 26.4975L105.142 28.7025H104.295ZM108.577 26.79V26.7225C108.577 26.3925 108.337 26.1 107.835 26.1C107.377 26.1 107.032 26.43 106.972 26.7825H108.577V26.79ZM106.042 27.345C106.042 26.3025 106.83 25.4175 107.895 25.4175C108.72 25.4175 109.335 25.95 109.335 26.85C109.335 27.045 109.297 27.285 109.267 27.3825H106.882V27.465C106.882 27.735 107.167 28.1025 107.767 28.1025C108.052 28.1025 108.382 28.02 108.577 27.87L108.832 28.4625C108.517 28.6725 108.09 28.7925 107.692 28.7925C106.687 28.7925 106.035 28.245 106.035 27.3525L106.042 27.345ZM109.245 28.2825C109.245 27.9675 109.515 27.6975 109.837 27.6975C110.107 27.6975 110.332 27.9225 110.332 28.1925C110.332 28.5075 110.062 28.7775 109.74 28.7775C109.47 28.7775 109.245 28.5525 109.245 28.2825ZM110.61 24.975H110.407L110.332 25.29H110.565C110.7 25.29 110.767 25.2 110.767 25.11C110.767 25.035 110.73 24.975 110.602 24.975M110.61 25.7775L110.452 25.4175H110.302L110.22 25.7775H110.077L110.28 24.855H110.64C110.82 24.855 110.917 24.975 110.917 25.095C110.917 25.2675 110.767 25.41 110.617 25.41L110.79 25.7775H110.617H110.61ZM110.482 24.6375C110.107 24.6375 109.815 24.9375 109.815 25.305C109.815 25.6725 110.107 25.9725 110.482 25.9725C110.857 25.9725 111.157 25.6725 111.157 25.305C111.157 24.9375 110.857 24.6375 110.482 24.6375ZM110.482 26.115C110.276 26.1061 110.08 26.0176 109.937 25.8681C109.794 25.7186 109.714 25.5195 109.714 25.3125C109.714 25.1055 109.794 24.9065 109.937 24.7569C110.08 24.6074 110.276 24.519 110.482 24.51C110.925 24.51 111.285 24.87 111.285 25.3125C111.285 25.755 110.925 26.115 110.475 26.115H110.482Z" fill="white"/>
</g>
<defs>
<clipPath id="clip0_126_24">
<rect width="111.3" height="30" fill="white"/>
</clipPath>
</defs>
</svg>
